{"title":"Dracula Untold 2014 CAM XviD MP3 MiLLENiUM","uid":11220764,"size":1164494993,"categoryP":"video","categoryS":"movies","magnet":"?xt=urn:btih:8c22456ede90cabee2907754752d049394c6343a&amp;dn=Dracula+Untold+2014+CAM+XviD+MP3+MiLLENiUM&amp;tr=udp%3A%2F%2Ftracker.openbittorrent.com%3A80&amp;tr=udp%3A%2F%2Fopen.demonii.com%3A1337&amp;tr=udp%3A%2F%2Ftracker.coppersurfer.tk%3A6969&amp;tr=udp%3A%2F%2Fexodus.desync.com%3A6969","seeders":2,"leechers":0,"uploader":"TvTeam","files":4,"time":1413383283,"description":" &lt;a href=&quot;http://www.torrenting.com&quot; rel=&quot;nofollow&quot; target=&quot;_NEW&quot;&gt;http://www.torrenting.com&lt;/a&gt;\n\nSign up is OPEN - for time being. Come and have fun.\n\n\n....[img]http://i.imgur.com/m06efJx.jpg[/img]\n\nGeneral\n\n\nFormat                                   : AVI\nFormat/Info                              : Audio Video Interleave\nFile size                                : 1.04 GiB\nDuration                                 : 1h 25mn\nOverall bit rate                         : 1 746 Kbps\nWriting application                      : VirtualDubMod 1.5.10.2 (build 2542/release)\nWriting library                          : VirtualDubMod build 2542/release\n\nVideo\n\nID                                       : 0\nFormat                                   : MPEG-4 Visual\nFormat profile                           : Advanced Simple@L5\nFormat settings, BVOP                    : 2\nFormat settings, QPel                    : Yes\nFormat settings, GMC                     : No warppoints\nFormat settings, Matrix                  : Default (MPEG)\nCodec ID                                 : XVID\nCodec ID/Hint                            : XviD\nDuration                                 : 1h 25mn\nBit rate                                 : 1 598 Kbps\nWidth                                    : 720 pixels\nHeight                                   : 304 pixels\nDisplay aspect ratio                     : 2.35:1\nFrame rate                               : 59.940 fps\nColor space                              : YUV\nChroma subsampling                       : 4:2:0\nBit depth                                : 8 bits\nScan type                                : Progressive\nCompression mode                         : Lossy\nBits/(Pixel*Frame)                       : 0.122\nStream size                              : 979 MiB (92%)\nWriting library                          : XviD 1.2.1 (UTC 2008-12-04)\n\nAudio\n\nID                                       : 1\nFormat                                   : MPEG Audio\nFormat version                           : Version 1\nFormat profile                           : Layer 3\nMode                                     : Joint stereo\nCodec ID                                 : 55\nCodec ID/Hint                            : MP3\nDuration                                 : 1h 25mn\nBit rate mode                            : Constant\nBit rate                                 : 128 Kbps\nChannel(s)                               : 2 channels\nSampling rate                            : 48.0 KHz\nCompression mode                         : Lossy\nStream size                              : 78.3 MiB (7%)\nAlignment                                : Aligned on interleaves\nInterleave, duration                     : 24 ms (1.44 video frame)\nInterleave, preload duration             : 504 ms\nWriting library                          : LAME3.99r\nEncoding settings                        : -m j -V 4 -q 2 -lowpass 17 -b 128\n\n\ninfo\n\nFacing threats to his kingdom and his family, Vlad Tepes makes a deal with \ndangerous supernatural forces - whilst trying to avoid succumbing to the \ndarkness himself.\n\n\nscreens\n\n\n[img]http://i.imgur.com/YzqEIOd.png[/img]\n[img]http://i.imgur.com/uKkIjRj.png[/img]\n[img]http://i.imgur.com/gmsIEhw.png[/img]\n[img]http://i.imgur.com/vR6tKs6.png[/img]","torrent":{"xt":"urn:btih:8c22456ede90cabee2907754752d049394c6343a","amp;dn":"Dracula+Untold+2014+CAM+XviD+MP3+MiLLENiUM","amp;tr":["udp%3A%2F%2Ftracker.openbittorrent.com%3A80","udp%3A%2F%2Fopen.demonii.com%3A1337","udp%3A%2F%2Ftracker.coppersurfer.tk%3A6969","udp%3A%2F%2Fexodus.desync.com%3A6969"],"infoHash":"8c22456ede90cabee2907754752d049394c6343a","infoHashBuffer":{"type":"Buffer","data":[140,34,69,110,222,144,202,190,226,144,119,84,117,45,4,147,148,198,52,58]},"announce":[],"urlList":[]}}